Coordinates
version=1
nRows=26
nColumns=24
inDegrees=yes

Units are S.I. units (second, meters, Newtons, ...)
If the header above contains a line with 'inDegrees', this indicates whether rotational values are in degrees (yes) or radians (no).

endheader
time	pelvis_tilt	pelvis_list	pelvis_rotation	pelvis_tx	pelvis_ty	pelvis_tz	hip_flexion_r	hip_adduction_r	hip_rotation_r	knee_angle_r	ankle_angle_r	subtalar_angle_r	mtp_angle_r	hip_flexion_l	hip_adduction_l	hip_rotation_l	knee_angle_l	ankle_angle_l	subtalar_angle_l	mtp_angle_l	lumbar_extension	lumbar_bending	lumbar_rotation
      7.01000000	     -1.79283547	    -33.01420538	    -93.40123699	     -0.28463222	      0.99817617	      0.42109453	    -32.26953284	      2.81935272	     -6.41749020	     -3.53688198	      5.81056255	      6.54158156	      0.00000000	    -14.84782227	     -9.53430730	    -13.77415498	    -59.90504563	     -8.73397794	    -15.82459316	      0.00000000	    -50.59994321	      0.41952950	      7.43937278
      7.02000000	     -1.36302035	    -32.85171135	    -93.39011894	     -0.28543633	      0.99924401	      0.43356201	    -33.33014103	      2.41102387	     -6.73063859	     -2.72394345	      5.93564649	      7.00272916	      0.00000000	    -13.17832326	     -8.97035063	    -13.85068894	    -58.87289441	     -7.52825253	    -15.40903160	      0.00000000	    -50.46567207	     -0.01705767	      7.68780351
      7.03000000	     -0.98509707	    -32.70638312	    -93.44725426	     -0.28614628	      1.00009721	      0.44595686	    -34.38856943	      2.00989810	     -7.00624328	     -1.93858640	      6.05223828	      7.47097654	      0.00000000	    -11.70447659	     -8.38694228	    -14.02455147	    -57.43769571	     -6.16560657	    -14.73406053	      0.00000000	    -50.36567381	     -0.43277283	      7.96513783
      7.04000000	     -0.66428877	    -32.58307777	    -93.57487729	     -0.28683894	      1.00072808	      0.45834006	    -35.44407880	      1.62137557	     -7.23444867	     -1.20185682	      6.18318150	      7.95603082	      0.00000000	    -10.44499712	     -7.80487017	    -14.29465539	    -55.59201250	     -4.74751209	    -13.85084490	      0.00000000	    -50.29794567	     -0.83583549	      8.27374198
      7.05000000	     -0.42178760	    -32.47910438	    -93.76830090	     -0.28751338	      1.00110728	      0.47071770	    -36.48823208	      1.26874980	     -7.41043193	     -0.52848445	      6.33986178	      8.44848879	      0.00000000	     -9.39057446	     -7.25541873	    -14.64276357	    -53.35608539	     -3.36732635	    -12.84278357	      0.00000000	    -50.26069052	     -1.20363949	      8.60682752
      7.06000000	     -0.26004741	    -32.38341573	    -94.01736683	     -0.28819961	      1.00120470	      0.48312657	    -37.52711902	      0.96321852	     -7.53736702	      0.11261424	      6.50400434	      8.94826282	      0.00000000	     -8.52689508	     -6.75328215	    -15.05688692	    -50.74579763	     -2.14995201	    -11.79257130	      0.00000000	    -50.23827084	     -1.53238373	      8.95728793
      7.07000000	     -0.20194196	    -32.26739840	    -94.28815241	     -0.28886942	      1.00093150	      0.49558479	    -38.53918402	      0.75348612	     -7.59445902	      0.73018439	      6.68614669	      9.38229648	      0.00000000	     -7.80434670	     -6.34128609	    -15.50706238	    -47.80797378	     -1.09007659	    -10.73450092	      0.00000000	    -50.20128992	     -1.77421022	      9.31319343
      7.08000000	     -0.24090537	    -32.14232558	    -94.58971958	     -0.28951928	      1.00029658	      0.50812823	    -39.55443528	      0.62335885	     -7.58038020	      1.35401615	      6.85884734	      9.76687490	      0.00000000	     -7.24948866	     -6.00035709	    -15.99249245	    -44.53982343	     -0.20425884	     -9.67161516	      0.00000000	    -50.15883080	     -1.93995610	      9.67955130
      7.09000000	     -0.35424208	    -32.01446412	    -94.90509477	     -0.29014997	      0.99929125	      0.52081864	    -40.58282507	      0.55830815	     -7.51237697	      1.97759142	      7.06154800	     10.07873668	      0.00000000	     -6.88575992	     -5.70617687	    -16.51648196	    -40.93292119	      0.56907986	     -8.56520416	      0.00000000	    -50.10561092	     -2.04630112	     10.04957279
      7.10000000	     -0.61118647	    -31.81945124	    -95.24062726	     -0.29077817	      0.99783353	      0.53363096	    -41.54536022	      0.63127230	     -7.36702783	      2.57743412	      7.26583941	     10.36256471	      0.00000000	     -6.62568897	     -5.54999018	    -17.08131795	    -37.05449933	      1.39452904	     -7.19889478	      0.00000000	    -49.98411773	     -2.02409403	     10.41710221
      7.11000000	     -0.90600806	    -31.65202820	    -95.57664998	     -0.29133277	      0.99606286	      0.54667143	    -42.56365697	      0.72626744	     -7.18460127	      3.18085190	      7.49104864	     10.60476987	      0.00000000	     -6.61197919	     -5.37826707	    -17.67510602	    -32.83214839	      2.21003646	     -5.61805950	      0.00000000	    -49.87289557	     -1.96548940	     10.78344340
      7.12000000	     -1.23713955	    -31.49617066	    -95.88128028	     -0.29179647	      0.99397107	      0.55998563	    -43.61723859	      0.86378142	     -6.99290657	      3.77162528	      7.72925116	     10.82557131	      0.00000000	     -6.80865126	     -5.19538119	    -18.26356013	    -28.30686879	      2.99572719	     -3.81907041	      0.00000000	    -49.75151137	     -1.85288540	     11.10156496
      7.13000000	     -1.60025547	    -31.33878187	    -96.10729601	     -0.29212632	      0.99152862	      0.57358557	    -44.68041250	      1.07462976	     -6.84899641	      4.31990425	      8.03782925	     11.05002575	      0.00000000	     -7.15743649	     -5.00870705	    -18.77254760	    -23.56249585	      3.71981713	     -1.84891189	      0.00000000	    -49.60768043	     -1.65986158	     11.34512397
      7.14000000	     -2.00988676	    -31.22307071	    -96.34605922	     -0.29238575	      0.98886942	      0.58748036	    -45.80030948	      1.30356844	     -6.71443542	      4.84093882	      8.31010160	     11.34321196	      0.00000000	     -7.72350679	     -4.80750301	    -19.29939116	    -18.61289788	      4.21680770	     -0.00239548	      0.00000000	    -49.48621240	     -1.43120650	     11.57070645
      7.15000000	     -2.47744975	    -31.12089211	    -96.61711449	     -0.29261290	      0.98599226	      0.60155359	    -46.91123590	      1.55135552	     -6.56768933	      5.28004424	      8.61885829	     11.68871482	      0.00000000	     -8.42946505	     -4.61459152	    -19.84741188	    -13.58244520	      4.48340360	      1.59857769	      0.00000000	    -49.37503672	     -1.17585984	     11.80007642
      7.16000000	     -3.13019623	    -31.10157989	    -97.03963991	     -0.29293823	      0.98305465	      0.61550312	    -48.04436396	      1.86241008	     -6.33169952	      5.57868510	      8.94291066	     12.03238711	      0.00000000	     -9.32179550	     -4.55139231	    -20.50946638	     -8.62674106	      4.59764658	      2.97955686	      0.00000000	    -49.39553766	     -0.85745998	     12.15380797
      7.17000000	     -4.05926809	    -31.11240396	    -97.82486877	     -0.29351248	      0.98020781	      0.62897371	    -49.07204156	      2.15614543	     -5.79264684	      5.64733213	      9.26012304	     12.38390917	      0.00000000	    -10.32932834	     -4.67315912	    -21.41741393	     -3.88497475	      4.52973244	      3.94663942	      0.00000000	    -49.55142942	     -0.52372686	     12.78883818
      7.18000000	     -5.41617484	    -31.18242612	    -99.13426599	     -0.29448499	      0.97767132	      0.64159355	    -49.98950256	      2.45074507	     -4.79903132	      5.41712697	      9.53503681	     12.68727047	      0.00000000	    -11.45500366	     -5.11882556	    -22.54237880	      0.44808781	      4.34566640	      4.45092504	      0.00000000	    -49.95156715	     -0.15163179	     13.85731794
      7.19000000	     -7.11954430	    -31.25789763	   -100.91344797	     -0.29577211	      0.97550460	      0.65340820	    -50.71766088	      2.68694466	     -3.38265272	      4.80177190	      9.84574008	     12.90350261	      0.00000000	    -12.61085193	     -5.84343109	    -23.66156841	      4.19381303	      4.01115900	      4.27722578	      0.00000000	    -50.55322867	      0.20245906	     15.32344088
      7.20000000	     -6.57725461	    -31.33266481	    -99.97108372	     -0.29430229	      0.97204551	      0.67055544	    -52.06736045	      2.64850149	     -4.47171878	      5.14590472	     10.11129677	     13.50919737	      0.00000000	    -13.32652940	     -4.79019398	    -22.52456767	      7.54585012	      3.74405094	      3.37993484	      0.00000000	    -50.18352793	      0.31046478	     14.31750368
      7.21000000	     -5.61496283	    -31.32179957	    -98.61564525	     -0.29239784	      0.96847534	      0.68845485	    -53.27067419	      2.53654695	     -5.99635185	      5.36406432	     10.39823555	     14.25584280	      0.00000000	    -13.73154612	     -3.54297451	    -20.98751572	      9.98506518	      3.54925428	      2.40320048	      0.00000000	    -49.60140289	      0.28237653	     12.93255234
      7.22000000	     -6.32592397	    -31.39227234	    -99.42421746	     -0.29261285	      0.96655286	      0.70216256	    -53.76299024	      2.38817582	     -5.51265299	      4.38160157	     10.72043484	     14.63776633	      0.00000000	    -14.16206834	     -3.74738122	    -21.05981835	     11.06012902	      3.44739100	      1.90740439	      0.00000000	    -49.87625978	      0.33243788	     13.45525405
      7.23000000	     -6.78962619	    -31.43656608	   -100.06878772	     -0.29270858	      0.96488886	      0.71618098	    -54.08780231	      2.08567106	     -5.14471103	      3.17900729	     11.01207792	     14.97087970	      0.00000000	    -14.31476577	     -3.84710643	    -21.05876822	     11.07598701	      3.60402654	      1.82680811	      0.00000000	    -50.07878965	      0.22895230	     13.82163594
      7.24000000	     -7.21916384	    -31.54830463	   -100.91859697	     -0.29308864	      0.96373537	      0.72995912	    -54.25946680	      1.54495792	     -4.64677374	      1.64107733	     11.31274806	     15.32561978	      0.00000000	    -14.38744916	     -3.94203175	    -21.33872369	     10.16159903	      3.93434684	      2.39502535	      0.00000000	    -50.39215585	     -0.10093856	     14.30777412
      7.25000000	     -7.96945860	    -31.60532012	   -102.30260693	     -0.29411966	      0.96312115	      0.74286582	    -54.07570460	      0.89744379	     -3.49286898	     -0.36265908	     11.55107867	     15.34712129	      0.00000000	    -14.35958551	     -4.35736375	    -21.91158535	      8.49222889	      4.27881285	      3.28298062	      0.00000000	    -50.81846263	     -0.53913790	     15.26123954
      7.26000000	     -9.05906698	    -31.62443289	   -104.25263980	     -0.29581892	      0.96296999	      0.75498872	    -53.62841758	      0.16825520	     -1.56510909	     -2.74004093	     11.66953437	     14.95124289	      0.00000000	    -14.37894550	     -5.06361732	    -22.77612328	      6.40226153	      4.40365391	      4.25038184	      0.00000000	    -51.35992288	     -1.10327359	     16.67715244
